<svg width="502.725" height="80.932" viewBox="0 0 502.725 80.932" xmlns="http://www.w3.org/2000/svg"><g id="svgGroup" stroke-linecap="round" fill-rule="nonzero" font-size="9pt" stroke="#000000" stroke-width=".5" fill="#000000" style="stroke:#000000;stroke-width:.5;fill:#000000"><path d="M 489.45 48.15 L 489.45 34.425 A 17.999 17.999 0 0 0 488.511 28.072 A 5.726 5.726 0 0 0 482.775 24 A 10.479 10.479 0 0 0 475.386 27.555 A 26.284 26.284 0 0 0 471.975 31.875 L 471.975 57.375 L 478.05 58.5 Q 478.35 59.7 478.05 61.5 Q 473.325 61.275 468.45 61.275 Q 465 61.275 458.7 61.425 Q 458.25 60 458.7 58.5 L 464.625 57.675 Q 464.925 53.55 464.925 48.15 L 464.925 34.425 A 17.999 17.999 0 0 0 463.986 28.072 A 5.726 5.726 0 0 0 458.25 24 Q 454.875 24 452.325 26.063 A 23.072 23.072 0 0 0 447.915 31.171 A 44.241 44.241 0 0 0 447.075 32.475 L 447.075 57.375 L 453.15 58.5 Q 453.45 59.7 453.15 61.5 Q 448.425 61.275 443.55 61.275 Q 440.1 61.275 433.8 61.425 Q 433.35 60 433.8 58.5 L 439.725 57.675 Q 440.025 53.55 440.025 48.15 L 440.025 27.6 Q 440.025 26.1 439.8 24.825 L 433.875 24.075 Q 433.575 22.95 433.875 21.225 A 133.321 133.321 0 0 0 441.24 20.434 A 255.88 255.88 0 0 0 446.7 19.65 Q 447.375 20.4 447.45 21.15 A 27.251 27.251 0 0 0 447.112 25.143 A 89.009 89.009 0 0 0 447.075 27.825 A 21.797 21.797 0 0 1 453.951 21.358 A 13.162 13.162 0 0 1 460.425 19.65 Q 464.325 19.65 467.55 21.638 Q 470.775 23.625 471.675 27.75 A 22.424 22.424 0 0 1 478.41 21.43 A 13.048 13.048 0 0 1 484.95 19.65 Q 489.525 19.65 493.013 22.35 A 9.848 9.848 0 0 1 496.5 30.631 A 18.095 18.095 0 0 1 496.5 30.675 L 496.5 57.375 L 502.575 58.5 Q 502.875 59.7 502.575 61.5 Q 497.85 61.275 492.975 61.275 Q 489.525 61.275 483.225 61.425 Q 482.775 60 483.225 58.5 L 489.15 57.675 Q 489.45 53.55 489.45 48.15 Z M 214.2 11.625 L 201.3 27.225 L 218.625 50.175 Q 221.85 54.75 224.925 57.825 L 230.775 58.425 A 6.663 6.663 0 0 1 230.946 59.956 A 8.388 8.388 0 0 1 230.85 61.2 A 2936.833 2936.833 0 0 0 223.615 61.063 Q 218.588 60.975 216.9 60.975 A 126.662 126.662 0 0 0 209.798 61.144 A 58.639 58.639 0 0 0 207.975 61.275 A 4.282 4.282 0 0 1 207.73 59.839 A 4.958 4.958 0 0 1 207.9 58.575 L 214.05 57.525 Q 213.47 56.3 209.954 51.309 A 388.311 388.311 0 0 0 208.725 49.575 L 196.125 32.25 L 191.85 32.25 L 191.85 57.9 L 197.925 58.65 Q 198.225 59.775 197.925 61.425 Q 193.2 61.2 187.65 61.2 Q 183.6 61.2 177.3 61.35 Q 176.85 60 177.3 58.65 L 183.525 57.75 A 61.595 61.595 0 0 0 183.783 52.986 A 171.683 171.683 0 0 0 183.825 48.975 L 183.825 4.8 L 177.75 4.05 Q 177.45 2.925 177.75 1.275 Q 181.875 1.575 188.025 1.575 Q 193.5 1.575 198.375 1.35 Q 198.825 2.7 198.375 4.05 L 192.15 4.95 A 61.595 61.595 0 0 0 191.892 9.714 A 171.683 171.683 0 0 0 191.85 13.725 L 191.85 28.425 L 195.825 28.425 L 214.8 4.8 L 208.725 4.05 Q 208.425 2.925 208.725 1.275 Q 212.85 1.575 217.35 1.575 Q 221.25 1.575 226.05 1.35 Q 226.5 2.7 226.05 4.05 L 221.025 4.95 Q 217.575 7.65 214.2 11.625 Z M 344.55 61.8 L 330.525 60.525 Q 328.2 60.225 326.662 58.088 Q 325.125 55.95 325.125 53.925 L 330.15 45.6 Q 326.7 43.65 324.938 40.425 Q 323.175 37.2 323.175 33.825 Q 323.175 27.45 327.9 23.55 Q 332.625 19.65 338.775 19.65 Q 344.7 19.65 349.2 22.8 A 16.399 16.399 0 0 1 350.594 16.184 A 6.893 6.893 0 0 1 356.85 12.15 Q 358.8 12.6 358.8 15.375 Q 358.8 16.875 358.5 18.675 Q 355.575 18.9 353.7 20.588 Q 351.825 22.275 351 24.45 A 13.902 13.902 0 0 1 351.343 24.806 A 12.736 12.736 0 0 1 354.75 33.825 Q 354.75 39.75 349.95 43.688 Q 345.15 47.625 338.775 47.625 Q 335.4 47.625 332.7 46.725 L 330.15 53.4 L 348.825 55.275 Q 353.175 55.8 355.463 58.463 Q 357.75 61.125 357.75 65.4 Q 357.75 72.9 352.35 76.913 A 21.298 21.298 0 0 1 341.839 80.705 A 36.695 36.695 0 0 1 337.725 80.925 A 26.903 26.903 0 0 1 328.969 79.672 A 14.525 14.525 0 0 1 325.8 78.15 Q 321.525 75.375 321.525 70.725 Q 321.525 67.575 323.55 65.138 Q 325.575 62.7 328.575 62.025 Q 329.25 62.325 329.7 63.3 Q 327.225 65.325 327.225 69.375 Q 327.225 72.975 330.525 75.15 A 15.216 15.216 0 0 0 338.993 77.325 A 25.226 25.226 0 0 0 339.075 77.325 Q 344.475 77.325 348.075 75.338 Q 351.675 73.35 351.675 69.75 A 10.351 10.351 0 0 0 350.584 64.504 A 4.839 4.839 0 0 0 350.25 64.013 A 6.532 6.532 0 0 0 346.053 61.992 A 18.01 18.01 0 0 0 344.55 61.8 Z M 329.925 33.825 Q 329.925 38.175 332.363 41.25 Q 334.8 44.325 338.85 44.325 Q 342.825 44.325 345.375 41.288 Q 347.925 38.25 347.925 33.825 Q 347.925 29.025 345.412 25.838 Q 342.9 22.65 338.85 22.65 Q 335.025 22.65 332.475 25.875 Q 329.925 29.1 329.925 33.825 Z M 58.275 48.15 L 58.275 34.425 A 23.23 23.23 0 0 0 57.652 28.47 A 7.448 7.448 0 0 0 56.738 26.325 Q 55.2 24 51.6 24 A 10.216 10.216 0 0 0 44.808 27.091 A 28.832 28.832 0 0 0 40.425 32.325 L 40.425 57.375 L 46.5 58.5 Q 46.8 59.7 46.5 61.5 Q 41.775 61.275 36.825 61.275 Q 33.375 61.275 27.075 61.425 Q 26.625 60 27.075 58.5 L 33 57.675 Q 33.3 53.55 33.3 48.15 L 33.3 27.6 Q 33.3 26.1 33.075 24.825 L 27.15 24.075 Q 26.85 22.95 27.15 21.225 Q 32.325 20.85 40.05 19.65 Q 40.725 20.4 40.8 21.15 A 27.251 27.251 0 0 0 40.462 25.143 A 89.009 89.009 0 0 0 40.425 27.825 A 21.797 21.797 0 0 1 47.301 21.358 A 13.162 13.162 0 0 1 53.775 19.65 A 14.019 14.019 0 0 1 61.028 21.299 Q 64.99 23.668 65.362 29.444 A 19.189 19.189 0 0 1 65.4 30.675 L 65.4 57.375 L 71.475 58.5 Q 71.775 59.7 71.475 61.5 Q 66.75 61.275 61.8 61.275 Q 58.35 61.275 52.05 61.425 Q 51.6 60 52.05 58.5 L 57.975 57.675 Q 58.275 53.55 58.275 48.15 Z M 101.325 22.5 L 101.325 32.1 L 97.8 32.1 L 96.15 24 Q 92.85 22.425 89.175 22.425 Q 83.025 22.425 83.025 27.45 Q 83.025 30.15 85.05 32.4 A 19.215 19.215 0 0 0 89.975 36.056 A 40.323 40.323 0 0 0 91.575 36.9 Q 94.65 38.475 96.975 39.9 Q 99.3 41.325 100.838 42.9 Q 102.375 44.475 103.163 46.313 Q 103.95 48.15 103.95 50.475 Q 103.95 53.1 102.825 55.35 Q 101.7 57.6 99.675 59.213 Q 97.65 60.825 94.8 61.763 Q 91.95 62.7 88.5 62.7 Q 81.825 62.7 75.975 59.85 L 75.975 50.25 L 79.5 50.25 L 81.15 57.675 Q 84.975 59.4 89.25 59.4 A 8.706 8.706 0 0 0 94.998 57.752 A 5.262 5.262 0 0 0 95.25 57.525 Q 97.2 55.65 97.2 53.175 Q 97.2 51.75 96.75 50.55 Q 96.3 49.35 95.288 48.225 Q 94.275 47.1 92.625 46.013 Q 90.975 44.925 88.5 43.65 Q 85.425 42.075 83.213 40.65 Q 81 39.225 79.575 37.65 Q 78.15 36.075 77.438 34.275 Q 76.725 32.475 76.725 30.225 Q 76.725 27.525 77.7 25.538 Q 78.675 23.55 80.438 22.238 Q 82.2 20.925 84.6 20.288 Q 87 19.65 89.925 19.65 Q 95.775 19.65 101.325 22.5 Z M 159.9 38.55 L 159.9 34.725 A 31.8 31.8 0 0 0 159.329 28.119 A 11.169 11.169 0 0 0 158.438 25.462 A 5.019 5.019 0 0 0 153.6 22.575 Q 150.15 22.575 148.05 24.788 Q 145.95 27 145.2 32.325 A 18.573 18.573 0 0 1 141.679 32.85 A 4.845 4.845 0 0 1 141.675 32.85 Q 138.75 32.85 138.225 30.75 Q 138.225 25.65 142.65 22.65 Q 147.075 19.65 153.675 19.65 A 20.849 20.849 0 0 1 160.82 20.694 A 8.863 8.863 0 0 1 163.988 22.612 A 10.541 10.541 0 0 1 166.666 28.52 A 27.801 27.801 0 0 1 167.025 33.225 L 167.025 54.375 Q 167.025 56.25 167.25 57.6 L 173.175 58.35 Q 173.475 59.475 173.175 61.2 Q 167.85 61.425 161.85 62.25 Q 161.25 61.65 161.1 60.75 L 160.725 55.575 A 20.574 20.574 0 0 1 151.717 61.933 A 15.626 15.626 0 0 1 146.85 62.7 Q 142.125 62.7 139.463 60 Q 136.8 57.3 136.8 52.725 Q 136.8 45.825 143.063 42.3 A 29.251 29.251 0 0 1 153.104 39.1 A 53.466 53.466 0 0 1 159.9 38.55 Z M 159.9 52.95 L 159.9 41.25 A 37.575 37.575 0 0 0 151.65 42.53 A 17.574 17.574 0 0 0 148.05 43.987 Q 143.925 46.275 143.925 51.225 A 9.885 9.885 0 0 0 144.884 56.084 A 4.017 4.017 0 0 0 145.35 56.737 Q 146.775 58.35 149.85 58.35 Q 152.1 58.35 154.838 56.963 Q 157.575 55.575 159.9 52.95 Z M 417.6 38.55 L 417.6 34.725 A 31.8 31.8 0 0 0 417.029 28.119 A 11.169 11.169 0 0 0 416.138 25.462 A 5.019 5.019 0 0 0 411.3 22.575 Q 407.85 22.575 405.75 24.788 Q 403.65 27 402.9 32.325 A 18.573 18.573 0 0 1 399.379 32.85 A 4.845 4.845 0 0 1 399.375 32.85 Q 396.45 32.85 395.925 30.75 Q 395.925 25.65 400.35 22.65 Q 404.775 19.65 411.375 19.65 A 20.849 20.849 0 0 1 418.52 20.694 A 8.863 8.863 0 0 1 421.688 22.612 A 10.541 10.541 0 0 1 424.366 28.52 A 27.801 27.801 0 0 1 424.725 33.225 L 424.725 54.375 Q 424.725 56.25 424.95 57.6 L 430.875 58.35 Q 431.175 59.475 430.875 61.2 Q 425.55 61.425 419.55 62.25 Q 418.95 61.65 418.8 60.75 L 418.425 55.575 A 20.574 20.574 0 0 1 409.417 61.933 A 15.626 15.626 0 0 1 404.55 62.7 Q 399.825 62.7 397.163 60 Q 394.5 57.3 394.5 52.725 Q 394.5 45.825 400.763 42.3 A 29.251 29.251 0 0 1 410.804 39.1 A 53.466 53.466 0 0 1 417.6 38.55 Z M 417.6 52.95 L 417.6 41.25 A 37.575 37.575 0 0 0 409.35 42.53 A 17.574 17.574 0 0 0 405.75 43.987 Q 401.625 46.275 401.625 51.225 A 9.885 9.885 0 0 0 402.584 56.084 A 4.017 4.017 0 0 0 403.05 56.737 Q 404.475 58.35 407.55 58.35 Q 409.8 58.35 412.538 56.963 Q 415.275 55.575 417.6 52.95 Z M 14.775 13.725 L 14.775 57.9 L 20.85 58.65 Q 21.15 59.775 20.85 61.425 Q 16.125 61.2 10.575 61.2 Q 6.525 61.2 0.225 61.35 Q -0.225 60 0.225 58.65 L 6.45 57.75 A 61.595 61.595 0 0 0 6.708 52.986 A 171.683 171.683 0 0 0 6.75 48.975 L 6.75 4.8 L 0.675 4.05 Q 0.375 2.925 0.675 1.275 Q 4.8 1.575 10.95 1.575 Q 16.425 1.575 21.3 1.35 Q 21.75 2.7 21.3 4.05 L 15.075 4.95 A 61.595 61.595 0 0 0 14.817 9.714 A 171.683 171.683 0 0 0 14.775 13.725 Z M 374.85 21.15 L 374.7 28.875 Q 376.575 25.425 379.913 22.538 A 10.432 10.432 0 0 1 385.767 19.669 A 6.335 6.335 0 0 1 386.25 19.65 Q 388.575 19.65 390.375 20.175 Q 390.975 21.15 390.975 22.725 Q 390.975 25.2 389.925 27.675 Q 387.225 26.925 384.75 26.925 Q 378.6 26.925 374.625 32.925 L 374.475 46.05 L 374.475 57.375 L 382.8 58.5 Q 383.1 59.7 382.8 61.5 A 229.031 229.031 0 0 0 372.095 61.275 A 330.394 330.394 0 0 0 372 61.275 A 439.115 439.115 0 0 0 362.673 61.39 A 692.502 692.502 0 0 0 361.125 61.425 Q 360.675 60 361.125 58.5 L 367.05 57.675 Q 367.35 53.55 367.35 48.15 L 367.35 27.6 Q 367.35 26.1 367.125 24.825 L 361.2 24.075 Q 360.9 22.95 361.2 21.225 Q 366.375 20.85 374.1 19.65 Q 374.775 20.4 374.85 21.15 Z M 267.525 13.65 L 267.525 57.375 L 273.6 58.5 Q 273.9 59.7 273.6 61.5 Q 268.875 61.275 263.925 61.275 Q 260.475 61.275 254.175 61.425 Q 253.725 60 254.175 58.5 L 260.1 57.675 Q 260.4 53.55 260.4 48.15 L 260.4 5.175 L 254.25 4.425 Q 253.95 3.3 254.25 1.575 Q 259.425 1.2 267.15 0 Q 267.825 0.75 267.9 1.5 Q 267.642 2.841 267.562 8.081 A 368.066 368.066 0 0 0 267.525 13.65 Z M 121.35 12.15 L 121.35 22.875 L 131.925 22.875 Q 132.075 23.775 132.075 24.225 Q 132.075 24.9 131.925 25.8 L 121.35 27.375 L 121.35 48 A 32.442 32.442 0 0 0 121.766 53.772 A 9.488 9.488 0 0 0 122.362 55.838 Q 123.375 58.125 125.55 58.125 A 14.137 14.137 0 0 0 129.587 57.276 A 43.898 43.898 0 0 0 131.625 56.55 Q 132.375 57.225 132.675 59.1 Q 130.425 60.45 129.263 61.088 Q 128.1 61.725 126.338 62.213 Q 124.575 62.7 122.625 62.7 Q 118.875 62.7 116.513 59.813 Q 114.15 56.925 114.15 51 L 114.15 26.475 L 108.9 25.8 Q 108.75 25.05 108.75 24.525 Q 108.75 23.925 108.9 22.875 Q 111 22.5 112.538 21.563 Q 114.075 20.625 115.125 18.938 Q 116.175 17.25 116.738 15.938 Q 117.3 14.625 118.125 12.15 Q 118.8 11.925 119.775 11.925 Q 120.675 11.925 121.35 12.15 Z M 245.1 33.3 L 245.1 57.375 L 251.175 58.5 Q 251.25 58.875 251.288 59.175 Q 251.325 59.475 251.325 59.85 A 8.236 8.236 0 0 1 251.31 60.333 A 9.561 9.561 0 0 1 251.288 60.637 Q 251.25 61.05 251.175 61.5 Q 246.45 61.275 241.5 61.275 Q 239.775 61.275 237.338 61.313 Q 234.9 61.35 231.75 61.425 Q 231.525 60.75 231.525 60 Q 231.525 59.325 231.75 58.5 L 237.675 57.675 Q 237.825 55.575 237.9 53.213 Q 237.975 50.85 237.975 48.15 L 237.975 32.175 A 116.421 116.421 0 0 0 237.859 26.377 A 37.822 37.822 0 0 0 237.75 24.825 L 231.825 24.075 Q 231.675 23.7 231.675 22.8 L 231.675 22.05 Q 231.675 21.675 231.825 21.225 A 106.38 106.38 0 0 0 240.114 20.352 A 199.555 199.555 0 0 0 244.725 19.65 Q 245.4 20.4 245.475 21.15 A 23.806 23.806 0 0 0 245.246 23.843 Q 245.173 25.431 245.137 27.795 A 360.834 360.834 0 0 0 245.1 33.3 Z M 278.4 41.25 Q 278.4 36.75 279.713 32.813 Q 281.025 28.875 283.5 25.95 Q 285.975 23.025 289.463 21.338 Q 292.95 19.65 297.3 19.65 Q 301.575 19.65 305.1 21.338 Q 308.625 23.025 311.138 25.95 Q 313.65 28.875 315 32.813 Q 316.35 36.75 316.35 41.25 Q 316.35 45.9 314.963 49.8 Q 313.575 53.7 311.063 56.588 Q 308.55 59.475 305.025 61.088 Q 301.5 62.7 297.3 62.7 Q 292.875 62.7 289.388 61.125 Q 285.9 59.55 283.463 56.7 Q 281.025 53.85 279.713 49.913 A 27.259 27.259 0 0 1 278.4 41.25 Z M 289.35 27.45 A 17.931 17.931 0 0 0 286.579 34.985 A 39.457 39.457 0 0 0 286.125 41.25 Q 286.125 45.825 286.988 49.275 Q 287.85 52.725 289.35 55.013 Q 290.85 57.3 292.875 58.425 Q 294.9 59.55 297.3 59.55 Q 299.625 59.55 301.725 58.425 Q 303.825 57.3 305.325 55.013 Q 306.825 52.725 307.725 49.275 Q 308.625 45.825 308.625 41.25 Q 308.625 36.675 307.725 33.188 Q 306.825 29.7 305.288 27.413 Q 303.75 25.125 301.688 23.963 Q 299.625 22.8 297.3 22.8 Q 292.65 22.8 289.35 27.45 Z M 234.15 6.525 Q 234 6.15 234 5.738 L 234 4.95 A 3.858 3.858 0 0 1 235.688 1.688 Q 237.375 0.45 239.85 0.45 Q 242.175 0.45 243.638 1.838 Q 245.1 3.225 245.1 5.625 Q 245.1 7.575 243.413 8.775 Q 241.725 9.975 239.1 9.975 Q 237.3 9.975 235.913 9.075 Q 234.525 8.175 234.15 6.525 Z"/></g></svg>